<svg viewBox="0 0 50 50" xml:space="preserve" xmlns="http://www.w3.org/2000/svg" enable-background="new 0 0 50 50"><path d="M39 15c-5.606 0-11.865 6.199-14 8.503C22.865 21.198 16.606 15 11 15 4.738 15 1 18.738 1 25s3.738 10 10 10c5.606 0 11.865-6.199 14-8.503C27.135 28.802 33.394 35 39 35c6.262 0 10-3.738 10-10s-3.738-10-10-10zM11 33c-6.96 0-8-5.012-8-8s1.04-8 8-8c4.862 0 10.802 5.991 12.657 8-1.854 2.01-7.788 8-12.657 8zm28 0c-4.862 0-10.802-5.991-12.657-8 1.854-2.01 7.788-8 12.657-8 6.96 0 8 5.012 8 8s-1.04 8-8 8z" fill="#b59778" class="fill-000000"></path></svg>