<svg data-name="Layer 1" viewBox="0 0 512 512" xmlns="http://www.w3.org/2000/svg"><path d="M462.17 330.21c17.39-57 16.48-123.11-6.21-177.89C423.93 75 356.42 32.37 265.89 32.37 202 32.37 153.33 51 121.4 87.8c-48.65 56-42 134.52-40.43 147.89l-41.18 100A24.37 24.37 0 0 0 38 348.11a23.57 23.57 0 0 0 17.91 19.95l34.2 8.14 19.09 57.94a33 33 0 0 0 39.67 21.5L230.64 434v38.48c0 3.42 2.33 6.66 5.72 7.13a6.69 6.69 0 0 0 7.65-6.62v-47.74a6.72 6.72 0 0 0-2.61-5.3 6.59 6.59 0 0 0-5.79-1.16l-90.19 23.92A19.5 19.5 0 0 1 121.87 430l-20.26-61.49a6.69 6.69 0 0 0-4.79-4.42l-37.83-9a10.18 10.18 0 0 1-7.06-13.76l41.39-100.5c6.42-4.8 38.8-27.07 80.46-22.84 33.08 3.33 64 22.41 91.89 56.69a226.35 226.35 0 0 0 22.7 24.09 6.76 6.76 0 0 0 .62.57C329 335.7 370.74 345 402.81 345a165.88 165.88 0 0 0 42.19-5.4c-10.07 27.21-24.68 51.65-43.53 70.52a6.73 6.73 0 0 0-2 4.76v57.55c0 3.42 2.33 6.66 5.73 7.13a6.69 6.69 0 0 0 7.65-6.62v-55.32c21.9-22.64 38.26-52.4 48.59-85.24a6.42 6.42 0 0 0 .73-2.17ZM311.79 301h68.39a27 27 0 1 0 0-13.38h-84.24A217.54 217.54 0 0 1 276 266.24a215.51 215.51 0 0 0-26.68-27.52H371a27 27 0 1 0 0-13.38h-17v-33.62a27 27 0 1 0-13.37 0v33.62h-109c-16.05-10.43-32.87-17-50.34-19.68v-26.38h44.09a27 27 0 1 0 0-13.37h-44.13v-59.34h70.84a27 27 0 1 0 0-13.38h-77.53a6.68 6.68 0 0 0-6.69 6.69v104.37c-33.66-1.33-60.56 11.75-74.3 20.27-1.21-24.48.22-84.59 38-128 29.28-33.7 74.43-50.77 134.32-50.77 84.77 0 147.88 39.66 177.71 111.69 21.3 51.4 22.39 113.22 6.53 166.75-14.05 5.18-75.88 23.66-138.34-23.19Zm80.83-6.69A13.65 13.65 0 1 1 406.27 308a13.66 13.66 0 0 1-13.65-13.68Zm-45.31-115A13.64 13.64 0 1 1 361 165.64a13.66 13.66 0 0 1-13.69 13.64ZM383.42 232a13.65 13.65 0 1 1 13.64 13.64A13.66 13.66 0 0 1 383.42 232Zm-145.64-59.4a13.65 13.65 0 1 1 13.64 13.65 13.65 13.65 0 0 1-13.64-13.65Zm26.75-72.72a13.65 13.65 0 1 1 13.64 13.64 13.66 13.66 0 0 1-13.64-13.64Z" fill="#b59778" class="fill-000000"></path></svg>