<svg data-name="Layer 1" viewBox="0 0 48 48" xmlns="http://www.w3.org/2000/svg"><path d="M17.306 11.252a5.294 5.294 0 1 0-10.588 0 5.237 5.237 0 0 0 .584 2.37 5.28 5.28 0 0 0 1.534 10.336" stroke-linejoin="round" fill="none" stroke="#b59778" stroke-linecap="round" stroke-width="2px" class="stroke-353535"></path><path d="M3.582 21.563a7 7 0 1 0 11.322 6.783V28" stroke-miterlimit="10" fill="none" stroke="#b59778" stroke-linecap="round" stroke-width="2px" class="stroke-353535"></path><path d="M8.43 42.329a6.216 6.216 0 0 1-3.322-5.504 6.15 6.15 0 0 1 .686-2.783" stroke-linejoin="round" fill="none" stroke="#b59778" stroke-linecap="round" stroke-width="2px" class="stroke-353535"></path><path d="M19 16a5 5 0 0 1-5 5M19 16.01h11.5l2.021-2.02M25.5 20.01h6l2.021-2.02H39M24.917 31.99H30.5l2.021 2.02M24.917 27.99H31.5l2.021 2.02H39M39 38.01h-7.48L30 35.99h-4.958v6.052a5 5 0 0 1-10 0M17.042 4.134a4.053 4.053 0 0 1 8 .918v6.958H29.5l2.021-2.02H39M36 24H25.042" stroke-miterlimit="10" fill="none" stroke="#b59778" stroke-linecap="round" stroke-width="2px" class="stroke-353535"></path><circle cx="11" cy="20" r="1" fill="#b59778" class="fill-353535"></circle><circle cx="11.792" cy="43.5" r="1" fill="#b59778" class="fill-353535"></circle><circle cx="41.479" cy="10" r="2" stroke-miterlimit="10" fill="none" stroke="#b59778" stroke-linecap="round" stroke-width="2px" class="stroke-353535"></circle><circle cx="41.479" cy="18" r="2" stroke-miterlimit="10" fill="none" stroke="#b59778" stroke-linecap="round" stroke-width="2px" class="stroke-353535"></circle><circle cx="41.479" cy="30" r="2" stroke-miterlimit="10" fill="none" stroke="#b59778" stroke-linecap="round" stroke-width="2px" class="stroke-353535"></circle><circle cx="41.479" cy="38" r="2" stroke-miterlimit="10" fill="none" stroke="#b59778" stroke-linecap="round" stroke-width="2px" class="stroke-353535"></circle></svg>