<svg data-name="Layer 1" viewBox="0 0 512 512" xmlns="http://www.w3.org/2000/svg"><path d="M197.58 321.86a6 6 0 0 0-6 6v140.2a6 6 0 1 0 11.92 0V327.82a6 6 0 0 0-5.92-5.96Z" fill="#b59778" class="fill-000000"></path><path d="M424.31 157.82c-10.47-10.48-28.22-10.88-39.46-1.51a57.16 57.16 0 0 0-28.43-9.66 48.39 48.39 0 0 0 17.51-37.08v-22.9a48.7 48.7 0 0 0-97.4 0v22.9a48.38 48.38 0 0 0 17.14 36.77H282.4a47 47 0 0 0-26.1 8.28 47 47 0 0 0-26.68-8.28h-11.27a48.4 48.4 0 0 0 17.13-36.77v-22.9a48.69 48.69 0 0 0-97.38 0v22.9a48.39 48.39 0 0 0 17.51 37.08 57.11 57.11 0 0 0-28.42 9.65 29.16 29.16 0 0 0-39.5 42.85l13 13v94.17a38.58 38.58 0 0 0 32.65 38v123.74a6 6 0 0 0 11.92 0V256.73l24.19 24.18a27.15 27.15 0 0 0 38.35 0l42.09-42.09v229.24a6 6 0 0 0 6 6h.31a6 6 0 0 0 6-6V238.81l42.08 42.1a27.18 27.18 0 0 0 38.36 0l24.17-24.17v211.32a6 6 0 1 0 11.92 0V344.34a38.57 38.57 0 0 0 32.66-38v-94.18l13-13a29.25 29.25 0 0 0-.08-41.34Zm-135.85-48.25v-22.9a36.77 36.77 0 1 1 73.54 0v22.9a36.77 36.77 0 1 1-73.54 0ZM353 158.26a45.28 45.28 0 0 1 23.07 6.44L321.85 219l-56.22-56.23a34.62 34.62 0 0 1 16.77-4.47Zm-203-48.69v-22.9a36.77 36.77 0 1 1 73.53 0v22.9a36.77 36.77 0 1 1-73.53 0ZM133.35 332.3a26.7 26.7 0 0 1-20.72-26v-82.22l20.72 20.72Zm66-59.82a15.22 15.22 0 0 1-21.47 0l-81.76-81.77a17.31 17.31 0 0 1 24.48-24.47l65.4 65.35a6 6 0 0 0 8.43 0l30.07-30.09 22.92 22.92Zm200 33.85a26.72 26.72 0 0 1-20.74 26v-87.51l20.74-20.74Zm16.49-115.61-81.76 81.76a15.2 15.2 0 0 1-21.47 0l-52.27-52.27c-.19-.19-.46-.2-.66-.36l-31-31a5.91 5.91 0 0 0-4.22-1.74c-.31 0-.54.3-.84.34a5.76 5.76 0 0 0-3.38 1.4L190.18 219l-54.25-54.3a45.13 45.13 0 0 1 23-6.44h70.64a35.08 35.08 0 0 1 24 9.56l24.1 24.09c.08.08.21 0 .29.12l39.57 39.57a6 6 0 0 0 8.45 0l65.35-65.35c6.49-6.54 17.91-6.55 24.47 0a17.3 17.3 0 0 1 0 24.47Z" fill="#b59778" class="fill-000000"></path><path d="M314.46 321.86a6 6 0 0 0-6 6v140.2a6 6 0 0 0 11.92 0V327.82a6 6 0 0 0-5.92-5.96Z" fill="#b59778" class="fill-000000"></path></svg>