<svg data-name="Layer 1" viewBox="0 0 512 512" xmlns="http://www.w3.org/2000/svg"><path d="M199.86 116.29H324.8a4.77 4.77 0 0 0 0-9.54H199.86a4.77 4.77 0 0 0 0 9.54ZM329.57 157a4.77 4.77 0 0 0-4.77-4.77H199.86a4.77 4.77 0 1 0 0 9.53H324.8a4.77 4.77 0 0 0 4.77-4.76Z" fill="#b59778" class="fill-231f20"></path><path d="m326.62 298.17 31.7 20.94a4.77 4.77 0 0 0 5.21 0 4.78 4.78 0 0 0 2.12-4.77l-5.17-31.68c13.16-10.36 20.37-23.8 20.37-38.13 0-17.46-10.78-33.52-29.21-44.07 21.95-17.11 35.49-40.48 35.49-66.21 0-52.33-56-94.91-124.8-94.91S137.53 82 137.53 134.28c0 20.26 8.16 39.44 23.65 55.67l-26 40.5a4.77 4.77 0 0 0 4 7.35 4.85 4.85 0 0 0 1.4-.21l63.26-19.43a150.22 150.22 0 0 0 27.93 8.14 42.6 42.6 0 0 0-4.13 18.26c0 30.89 34.37 56 76.61 56a103.62 103.62 0 0 0 22.37-2.39Zm-124-89.62-52.45 16.1 21.05-32.76a4.76 4.76 0 0 0-.69-6c-15.39-15-23.52-32.82-23.52-51.62 0-47.07 51.71-85.37 115.27-85.37S377.6 87.21 377.6 134.28c0 24.83-14.4 47.22-37.33 62.84a4.33 4.33 0 0 0-.61.41c-20.46 13.74-47.6 22.12-77.33 22.12a147.42 147.42 0 0 1-56.43-11 4.78 4.78 0 0 0-3.23-.1Zm34.5 36a33.71 33.71 0 0 1 4.5-16.69 165 165 0 0 0 20.66 1.31c30.71 0 58.85-8.48 80.62-22.52 17.81 8.77 28.37 22.8 28.37 37.9 0 12-6.68 23.45-18.8 32.19a4.75 4.75 0 0 0-1.91 4.63l3.88 23.77-24.33-16.07a4.79 4.79 0 0 0-3.76-.65 93.22 93.22 0 0 1-22.16 2.62c-36.93.01-67.02-20.84-67.02-46.48ZM202.55 434.57h-43.11l-29.52-72a44.58 44.58 0 0 0-25.17-24.77 41.93 41.93 0 1 0-42.9 1.11 39 39 0 0 0-21.47 34.78V466a4.77 4.77 0 0 0 9.54 0v-92.34a29.42 29.42 0 0 1 29.38-29.39h9.18a35.13 35.13 0 0 1 32.62 21.88l30.73 75a4.77 4.77 0 0 0 4.41 3h46.31a9.5 9.5 0 0 1 0 19h-62.1a13.05 13.05 0 0 1-12.12-8.15l-22.85-55.71a4.77 4.77 0 1 0-8.82 3.61l22.85 55.72a22.56 22.56 0 0 0 20.94 14.05h62.1a19 19 0 0 0 0-38.06ZM50 302.35a32.39 32.39 0 1 1 32.39 32.38A32.43 32.43 0 0 1 50 302.35ZM450.15 338.88a41.92 41.92 0 1 0-42.9-1.11 44.58 44.58 0 0 0-25.17 24.77l-29.52 72h-43.11a19 19 0 0 0 0 38.06h62.1a22.56 22.56 0 0 0 20.94-14.05l22.85-55.72a4.77 4.77 0 1 0-8.82-3.61L383.67 455a13.05 13.05 0 0 1-12.12 8.13h-62.1a9.5 9.5 0 0 1 0-19h46.31a4.77 4.77 0 0 0 4.41-3l30.73-75a35.13 35.13 0 0 1 32.62-21.88h9.18a29.42 29.42 0 0 1 29.38 29.39V466a4.77 4.77 0 1 0 9.54 0v-92.34a39 39 0 0 0-21.47-34.78Zm-52.9-36.53a32.39 32.39 0 1 1 32.39 32.38 32.43 32.43 0 0 1-32.39-32.38Z" fill="#b59778" class="fill-231f20"></path></svg>