<svg viewBox="0 0 64 64" xml:space="preserve" xmlns="http://www.w3.org/2000/svg" enable-background="new 0 0 64 64"><path d="M63 48v-4a.992.992 0 0 0-.932-.986l.93-13.947A1 1 0 0 0 62 28h-2a.998.998 0 0 0-.98.804L56.18 43H55v-9.515c0-5.296-1.924-10.286-5.407-14.216A6.98 6.98 0 0 0 52 14c0-3.86-3.14-7-7-7s-7 3.14-7 7c0 3.358 2.377 6.169 5.537 6.844a19.774 19.774 0 0 0-1.411 5.588A8.985 8.985 0 0 1 39 27h-6c-.366 0-.705.106-1 .278A1.978 1.978 0 0 0 31 27h-6c-1.077 0-2.135-.2-3.126-.568a19.774 19.774 0 0 0-1.411-5.588C23.623 20.169 26 17.358 26 14c0-3.86-3.14-7-7-7s-7 3.14-7 7c0 2.102.936 3.985 2.407 5.27C10.924 23.2 9 28.189 9 33.485V43H7.82L4.98 28.804A.998.998 0 0 0 4 28H2a1 1 0 0 0-.997 1.067l.93 13.947A.992.992 0 0 0 1 44v4a1 1 0 0 0 1 1h.847L1.01 61.858A1 1 0 0 0 2 63h2a1 1 0 0 0 .961-.725L8.754 49h3.491l3.793 13.275c.123.429.516.725.962.725h2a1 1 0 0 0 .989-1.142L18.153 49h1.551l1.147 8.03A.987.987 0 0 0 20 58v4a1 1 0 0 0 1 1h8a1 1 0 0 0 1-1v-2c0-1.654-1.346-3-3-3h-.057l-.865-14.707A4.515 4.515 0 0 0 22 38.046V37h9v26h2V37h9v1.046a4.51 4.51 0 0 0-2.75 1.29 4.555 4.555 0 0 0-1.328 2.957L37.057 57H37c-1.654 0-3 1.346-3 3v2a1 1 0 0 0 1 1h8a1 1 0 0 0 1-1v-4c0-.5-.373-.896-.851-.97L44.296 49h1.551L44.01 61.858A1 1 0 0 0 45 63h2a1 1 0 0 0 .961-.725L51.754 49h3.491l3.793 13.275c.123.429.516.725.962.725h2a1 1 0 0 0 .989-1.142L61.153 49H62a1 1 0 0 0 1-1zm-2.18-18h.111l-.866 13H58.22l2.6-13zM45 9c2.757 0 5 2.243 5 5a4.972 4.972 0 0 1-1.376 3.425A2.582 2.582 0 0 1 48 15.764V14c0-1.654-1.346-3-3-3h-2.586c-.4 0-.79-.113-1.14-.301C42.19 9.666 43.513 9 45 9zm-5 5c0-.553.112-1.075.278-1.572a4.377 4.377 0 0 0 2.136.572H45c.551 0 1 .449 1 1v1.764c0 1.051.355 2.035.971 2.828A4.964 4.964 0 0 1 45 19c-2.757 0-5-2.243-5-5zm7.8 10.6-1.6-1.2a8.945 8.945 0 0 1-1.901 1.852c.269-1.48.732-2.911 1.366-4.285a6.94 6.94 0 0 0 2.226-.599C51.18 23.964 53 28.58 53 33.485V38h-9v-5.204c2.685-.503 5.139-1.982 6.8-4.196l-1.6-1.2A9.044 9.044 0 0 1 42 31h-5v-2h2c3.444 0 6.733-1.645 8.8-4.4zM35 29v2h-2v-2h2zm-4 2h-2v-2h2v2zM19 19c-.7 0-1.366-.147-1.971-.408A4.596 4.596 0 0 0 18 15.764V14c0-.551.449-1 1-1h2.586c.763 0 1.488-.211 2.136-.572.166.497.278 1.019.278 1.572 0 2.757-2.243 5-5 5zm-5-5c0-2.757 2.243-5 5-5 1.487 0 2.81.666 3.726 1.699-.35.188-.74.301-1.14.301H19c-1.654 0-3 1.346-3 3v1.764c0 .628-.239 1.2-.624 1.661A4.972 4.972 0 0 1 14 14zm2.108 6.367c.69.315 1.438.524 2.226.599a17.817 17.817 0 0 1 1.366 4.285 8.944 8.944 0 0 1-1.901-1.852l-1.6 1.2a11.052 11.052 0 0 0 8.8 4.4h2v2h-5a9.044 9.044 0 0 1-7.2-3.6l-1.6 1.2c1.66 2.214 4.115 3.693 6.8 4.196V38h-9v-4.515c.001-4.905 1.821-9.521 5.109-13.118zM3.18 30l2.6 13H3.935l-.866-13h.111zm.066 31h-.093l1.714-12h1.807L3.246 61zm14.601 0h-.093l-3.429-12h1.807l1.715 12zM3 47v-2h16.133l.286 2H3zm25 13v1h-6v-2h5c.551 0 1 .449 1 1zm-3.918-17.59L24.94 57h-2.073L20.99 43.858A1 1 0 0 0 20 43h-9v-3h10.525a2.565 2.565 0 0 1 2.557 2.41zM22 35v-2h20v2H22zm20 26h-6v-1c0-.551.449-1 1-1h5v2zm2-18a1 1 0 0 0-.99.858L41.133 57H39.06l.858-14.59A2.56 2.56 0 0 1 42.475 40H53v3h-9zm.867 2H61v2H44.582l.285-2zm1.379 16h-.093l1.714-12h1.807l-3.428 12zm14.601 0h-.093l-3.429-12h1.807l1.715 12z" fill="#b59778" class="fill-000000"></path><path d="m27.833 10.753-1.54 1.54 1.414 1.414 1.54-1.54a4.961 4.961 0 0 0 1.753.732V15h2v-2.101a4.961 4.961 0 0 0 1.753-.732l1.54 1.54 1.414-1.414-1.54-1.54A4.961 4.961 0 0 0 36.899 9H39V7h-2.101a4.961 4.961 0 0 0-.732-1.753l1.54-1.54-1.414-1.414-1.54 1.54A4.961 4.961 0 0 0 33 3.101V1h-2v2.101a4.961 4.961 0 0 0-1.753.732l-1.54-1.54-1.414 1.414 1.54 1.54A4.961 4.961 0 0 0 27.101 7H25v2h2.101c.13.637.384 1.229.732 1.753zm2.46-3.046 1.414-1.414-.992-.992C31.106 5.113 31.538 5 32 5s.894.113 1.285.301l-.992.992 1.414 1.414.992-.992c.188.391.301.823.301 1.285s-.113.894-.301 1.285l-.992-.992-1.414 1.414.992.992c-.391.188-.823.301-1.285.301s-.894-.113-1.285-.301l.992-.992-1.414-1.414-.992.992C29.113 8.894 29 8.462 29 8s.113-.894.301-1.285l.992.992z" fill="#b59778" class="fill-000000"></path></svg>