<svg viewBox="0 0 20 20" xmlns="http://www.w3.org/2000/svg"><path d="M9.5 0A2.508 2.508 0 0 0 7 2.5c0 .563.194 1.08.512 1.5H7.5A2.508 2.508 0 0 0 5 6.5v4c0 1.203.864 2.215 2 2.45v5.55A1.5 1.5 0 0 0 8.5 20h2a1.5 1.5 0 0 0 1.5-1.5v-5.55h.002A2.51 2.51 0 0 0 14 10.5v-4C14 5.125 12.875 4 11.5 4h-.012c.318-.42.512-.937.512-1.5C12 1.125 10.875 0 9.5 0zm-5 1c-.215 0-.42.036-.62.088l-.077.023a2.47 2.47 0 0 0-.54.23A2.497 2.497 0 0 0 2 3.5c0 .563.194 1.08.512 1.5H2.5A2.508 2.508 0 0 0 0 7.5v3a2.51 2.51 0 0 0 1.998 2.45H2v3.55A1.5 1.5 0 0 0 3.5 18H6v-1H5v-3.5a.5.5 0 0 0-1 0V17h-.5a.5.5 0 0 1-.5-.5v-8a.5.5 0 0 0-1 0v3.41c-.584-.204-1-.752-1-1.41v-3C1 6.666 1.666 6 2.5 6h.012a1 1 0 0 0 1-1c0-.217-.072-.429-.23-.643A1.451 1.451 0 0 1 3 3.5C3 2.666 3.666 2 4.5 2c.288 0 .553.081.705.174.152.092.242.119.334.119a.5.5 0 0 0 .5-.5.473.473 0 0 0-.154-.354.563.563 0 0 0-.145-.097A2.458 2.458 0 0 0 4.5 1zm5 0c.834 0 1.5.666 1.5 1.5 0 .342-.122.644-.281.857-.16.214-.23.426-.23.643a1 1 0 0 0 1 1h.011c.834 0 1.5.666 1.5 1.5v4c0 .658-.416 1.206-1 1.41V7.5a.5.5 0 0 0-1 0v11a.5.5 0 0 1-.5.5H10v-5.5a.5.5 0 0 0-1 0V19h-.5a.5.5 0 0 1-.5-.5v-11a.5.5 0 1 0-1 0v4.41c-.584-.204-1-.752-1-1.41v-4C6 5.666 6.666 5 7.5 5h.012a1 1 0 0 0 1-1c0-.217-.072-.429-.23-.643A1.451 1.451 0 0 1 8 2.5C8 1.666 8.666 1 9.5 1zm5 0c-.453 0-.873.129-1.24.342a.563.563 0 0 0-.145.097.473.473 0 0 0-.154.354.5.5 0 0 0 .5.5c.092 0 .182-.027.334-.12.152-.092.417-.173.705-.173.834 0 1.5.666 1.5 1.5 0 .342-.122.644-.281.857-.16.214-.23.426-.23.643a1 1 0 0 0 1 1h.011c.834 0 1.5.666 1.5 1.5v3c0 .658-.416 1.206-1 1.41V8.5a.5.5 0 0 0-1 0v8a.5.5 0 0 1-.5.5H15v-3.5a.5.5 0 0 0-1 0V17h-1v1h2.5a1.5 1.5 0 0 0 1.5-1.5v-3.55h.002A2.51 2.51 0 0 0 19 10.5v-3C19 6.125 17.875 5 16.5 5h-.012c.318-.42.512-.937.512-1.5 0-.923-.514-1.725-1.264-2.158a2.47 2.47 0 0 0-.539-.23A2.456 2.456 0 0 0 14.5 1z" fill="#b59778" fill-opacity="1" stroke="none" stroke-width="0" class="fill-222222"></path></svg>