<svg viewBox="0 0 64 64" xml:space="preserve" xmlns="http://www.w3.org/2000/svg"><path d="M53.7 14.5c-.3-.2-.7-.3-1.1-.1l-.6.3c-.1-.3-.2-.5-.4-.7l-.2-.2.8-7.7c0-.4-.1-.8-.5-1-.3-.2-.7-.2-1.1 0l-1.7 1-.1-.1-4.4-2.8c-.3-.2-.7-.2-1 0L39.1 6l-.6-.4.4-2.7c.1-.4-.1-.7-.4-1s-.7-.2-1-.1L35 3.1l-.3-.3L30.3 0c-.3-.2-.7-.2-1 0l-4.7 2.7-1.2-.8c-.3-.2-.7-.2-1.1 0-.3.2-.5.6-.5 1l.2 3.5-1.3-.8c-.3-.2-.7-.2-1 0l-5 2.8-1.4-.9c-.3-.2-.7-.2-1.1 0-.3.2-.5.6-.5 1l.7 6.7-.9-.6c-.3-.2-.8-.2-1.1 0-.3.2-.5.6-.4 1l5.1 22.8c.1.2.2.4.4.6l15.1 11.4-2.6-1.1c-.5-.3-.8-.3-1.1-.3-1.3 0-2.4 1.1-2.4 2.4 0 1.3 1.1 2.4 2.4 2.4.3 0 .5 0 .8-.1l2.9-.9-4.1 2.9c-.3.2-.4.5-.4.8V63c0 .3.2.7.5.8.2.1.3.2.5.2.1 0 .3 0 .4-.1l5.3-2.5 5.9 2.5c.3.1.7.1.9-.1.3-.2.5-.5.5-.8v-6.4c0-.3-.1-.6-.4-.8l-3.2-2.4.7.2c.2.1.5.1.8.1 1.3 0 2.4-1.1 2.4-2.4 0-1.3-1.1-2.4-2.4-2.4-.3 0-.6.1-.9.2L35 50l8.9-6c.4-.3.6-.9.3-1.3l4.7-3.8c.2-.1.3-.3.4-.6L54 15.5c.1-.4 0-.8-.3-1zm-10 4.2.7-6.9 5.5 3.6v.3l-6.2 3zm-23.9 1.4-.1-2.1 10.9 7.1-2 .9-8.8-5.9zm-1.6-9.4 1.5-.8 1 .6-1.5.8-1-.6zm7.5-.6-.3 3.1c-.2 0-.4 0-.6.1l-1.4.8-2.3-1.5 4.6-2.5zm-.5 5.3 3.2 2-.8.5-1.9-1.3-2.3 1.4-1.2-.8 3-1.8zm9.9-3.8 1.1-.6 3.1 2-.8.5-2-1.4-2.5 1.2-.9-.5 2-1.2zm0 2.5 1.4-.8 1.1.8-1.5.8-1-.8zm7.1-.6-.5 5.1-3.7-2.5 4.2-2.6zm1.9-4.2-1-.7 1.3-.6.9.6-1.2.7zm-1.3 1.5-1.6 1-.1-.1-2.1-1.3-.3-2.2 4.1 2.6zM30.7 22.7l-3.4-2.2 2.4-1.5c.1 0 .2-.1.2-.1l1.3-.9-.5 4.7zm-6.4-4.1 1.4-.8 1 .7-1.3.8-1.1-.7zm8.3 5.4.8-8c0-.4-.1-.8-.5-1s-.7-.2-1.1 0l-1 .6-.2-2.2 9.8 6.6-7.8 4zm16.8-11.3L46 10.5 49.9 8l-.5 4.7zm-5.5-7.2 3.1 2-.8.5-1.8-1.2L42.2 8 41 7.2l2.9-1.7zm-8 3.4c-.1 0-.1 0-.2.1l-1.1.6-3.5-2.3 5.3-2.7-.5 4.3zM29.3 6l-.7-.5 1-.5.8.5-1.1.5zm.3-3.8 3.2 2-1.4.8-1.7-1.1-2 1.1-1.3-.8 3.2-2zm-5.7 2.7 8.9 5.8-1.5.9-1.2-.8c-.3-.2-.7-.2-1.1 0-.3.2-.5.6-.5.9l.3 3.6-1.6-1 .6-5.9c0-.4-.1-.7-.4-.9-.3-.2-.7-.2-1 0l-1.3.7-.9-.5-.3-2.8zm-3.7 2.7L23 9.3l-1.3.7-1.9-1.3-2.5 1.4-.7-.5 3.6-2zm-6.3 2.7 7.5 5-1.2.7-1.1-.7c-.3-.2-.7-.2-1.1 0s-.5.6-.5.9l.2 2.5-3.1-2.1-.7-6.3zm13.4 42.4c-.1 0-.3.1-.4.1-.8 0-1.4-.6-1.4-1.4 0-.8.6-1.4 1.4-1.4.2 0 .4 0 .6.1l3.4 1.5-3.6 1.1zM38 61.5l-4.9-2.1c-.1-.1-.3-.1-.4-.1-.1 0-.3 0-.4.1l-4.3 2V57l2.9-2.1-1 2.5c-.1.3 0 .5.3.6h.2c.2 0 .4-.1.5-.3l1.5-3.9.1-.1 1.5 4c.1.2.3.3.5.3h.2c.3-.1.4-.4.3-.6l-1.4-3.6 4.5 3.3v4.4zm-.7-11.4c.9-.4 2 .3 2 1.3 0 .9-1 1.6-1.9 1.3l-3.5-1.2 3.4-1.4zm-4.8-.8L16.9 37.5l-4.4-20 24.2 16.3 5.4 9.1-9.6 6.4zm14.9-11.8-4.2 3.4-4.9-8.3-.3-.3-7.4-5 21.1-10.2-4.3 20.4z" fill="#b59778" class="fill-4d4d4d"></path></svg>