<svg viewBox="0 0 64 64" xmlns="http://www.w3.org/2000/svg"><g data-name="Outline"><path d="M12 31h4a2 2 0 0 0 2-2v-4a2 2 0 0 0-2-2h-4a2 2 0 0 0-2 2v4a2 2 0 0 0 2 2Zm0-6h4v4h-4ZM24 31h4a2 2 0 0 0 2-2v-4a2 2 0 0 0-2-2h-4a2 2 0 0 0-2 2v4a2 2 0 0 0 2 2Zm0-6h4v4h-4ZM36 31h4a2 2 0 0 0 2-2v-4a2 2 0 0 0-2-2h-4a2 2 0 0 0-2 2v4a2 2 0 0 0 2 2Zm0-6h4v4h-4ZM48 31h4a2 2 0 0 0 2-2v-4a2 2 0 0 0-2-2h-4a2 2 0 0 0-2 2v4a2 2 0 0 0 2 2Zm0-6h4v4h-4ZM22 39.5a2 2 0 0 0 2 2h4a2 2 0 0 0 2-2v-4a2 2 0 0 0-2-2h-4a2 2 0 0 0-2 2Zm2-4h4v4h-4ZM34 39.5a2 2 0 0 0 2 2h4a2 2 0 0 0 2-2v-4a2 2 0 0 0-2-2h-4a2 2 0 0 0-2 2Zm2-4h4v4h-4ZM46 39.5a2 2 0 0 0 2 2h4a2 2 0 0 0 2-2v-4a2 2 0 0 0-2-2h-4a2 2 0 0 0-2 2Zm2-4h4v4h-4ZM10 50a2 2 0 0 0 2 2h4a2 2 0 0 0 2-2v-4a2 2 0 0 0-2-2h-4a2 2 0 0 0-2 2Zm2-4h4v4h-4ZM22 50a2 2 0 0 0 2 2h4a2 2 0 0 0 2-2v-4a2 2 0 0 0-2-2h-4a2 2 0 0 0-2 2Zm2-4h4v4h-4ZM10.29 38.71l2 2a1 1 0 0 0 1.49-.08l4-5a1 1 0 1 0-1.56-1.25l-3.3 4.12-1.21-1.21a1 1 0 0 0-1.42 1.42ZM34.29 51.71a1 1 0 0 0 1.42 0l2.29-2.3 2.29 2.3a1 1 0 0 0 1.42-1.42L39.41 48l2.3-2.29a1 1 0 0 0-1.42-1.42L38 46.59l-2.29-2.3a1 1 0 0 0-1.42 1.42l2.3 2.29-2.3 2.29a1 1 0 0 0 0 1.42Z" fill="#b59778" class="fill-000000"></path><path d="M54 6h-3v-.5a3.5 3.5 0 0 0-7 0V6h-8.5v-.5a3.5 3.5 0 0 0-7 0V6H20v-.5a3.5 3.5 0 0 0-7 0V6h-3a5 5 0 0 0-5 5v31a1 1 0 0 0 2 0V20h50v24a1 1 0 0 1-1 1h-5a5 5 0 0 0-5 5v5a1 1 0 0 1-1 1l-35-.06a3 3 0 0 1-3-3V50a1 1 0 0 0-2 0v7a5 5 0 0 0 5 5h44a5 5 0 0 0 5-5V11a5 5 0 0 0-5-5Zm-8-.5a1.5 1.5 0 0 1 3 0v4a1.5 1.5 0 0 1-3 0Zm-15.5 0a1.5 1.5 0 0 1 3 0v4a1.5 1.5 0 0 1-3 0ZM15 5.5a1.5 1.5 0 0 1 3 0v4a1.5 1.5 0 0 1-3 0ZM7 18v-7a3 3 0 0 1 3-3h3v1.5a3.5 3.5 0 0 0 7 0V8h8.5v1.5a3.5 3.5 0 0 0 7 0V8H44v1.5a3.5 3.5 0 0 0 7 0V8h3a3 3 0 0 1 3 3v7Zm41 32a3 3 0 0 1 3-3h4.59L48 54.59Zm6 10H10a3 3 0 0 1-3-3.09 4.9 4.9 0 0 0 3 1l35.33.09a5 5 0 0 0 3.55-1.47L57 48.42V57a3 3 0 0 1-3 3Z" fill="#b59778" class="fill-000000"></path><circle cx="6" cy="46" r="1" fill="#b59778" class="fill-000000"></circle></g></svg>